<?xml version="1.0" standalone="no"?>
<!DOCTYPE svg PUBLIC "-//W3C//DTD SVG 20010904//EN"
 "http://www.w3.org/TR/2001/REC-SVG-20010904/DTD/svg10.dtd">
<svg version="1.0" xmlns="http://www.w3.org/2000/svg"
 width="50" height="50" viewBox="0 0 500.000000 500.000000"
 preserveAspectRatio="xMidYMid meet">

<g transform="translate(0.000000,500.000000) scale(0.100000,-0.100000)"
fill="#000000" stroke="none">
<path d="M1231 3820 c-40 -6 -119 -22 -175 -36 -343 -90 -596 -287 -741 -578
-118 -238 -151 -485 -99 -757 74 -392 362 -710 765 -843 57 -19 149 -42 203
-51 116 -19 328 -22 442 -5 169 24 352 92 473 175 29 20 54 35 55 33 2 -2 9
-25 15 -53 62 -254 249 -482 483 -589 164 -75 381 -102 583 -72 153 23 279 57
283 77 2 14 -7 14 -85 3 -123 -18 -314 -17 -419 1 -370 65 -586 277 -661 652
-14 73 -18 143 -18 415 0 316 1 327 21 355 27 37 63 53 129 60 30 3 55 10 55
14 0 5 -139 9 -310 9 -170 0 -310 -4 -310 -9 0 -4 25 -11 55 -14 70 -7 104
-24 132 -66 23 -34 23 -38 23 -337 l0 -302 -51 -45 c-96 -84 -245 -158 -401
-200 -71 -18 -108 -21 -258 -21 -147 0 -188 4 -253 22 -99 27 -232 89 -310
146 -77 54 -209 191 -260 269 -187 282 -224 718 -91 1054 93 237 294 444 519
536 129 52 225 70 385 71 160 1 266 -16 380 -61 194 -77 348 -240 410 -433 22
-70 40 -90 40 -47 0 40 -51 391 -60 414 -6 15 -46 40 -122 77 -131 63 -175 79
-318 112 -119 28 -377 40 -509 24z"/>
<path d="M3330 3805 c-63 -8 -179 -14 -257 -14 l-141 -1 -129 -76 c-70 -42
-132 -81 -138 -86 -7 -6 34 -7 118 -3 l127 7 0 -58 c-1 -302 -22 -1304 -30
-1434 -11 -179 -34 -379 -52 -448 -9 -38 -19 -49 -77 -88 l-66 -45 180 4 c209
4 255 16 459 114 l118 58 -190 0 c-105 0 -193 3 -196 6 -4 3 5 26 18 50 57
102 67 215 86 979 5 217 12 505 16 639 l6 243 152 -4 c139 -4 158 -7 234 -36
156 -59 270 -149 323 -257 20 -42 25 -68 27 -161 5 -167 -33 -290 -119 -388
-53 -60 -111 -93 -192 -110 -53 -11 -85 -27 -165 -82 l-100 -69 63 -20 c34
-11 78 -35 98 -52 53 -46 211 -215 402 -428 247 -277 282 -314 349 -373 88
-78 147 -106 221 -106 75 0 137 27 272 120 125 86 123 84 72 72 -60 -14 -158
-3 -216 23 -36 17 -108 82 -293 268 -260 261 -590 607 -590 619 0 4 25 20 56
35 199 98 340 244 391 405 31 98 33 220 3 313 -54 175 -214 319 -415 375 -80
22 -279 26 -425 9z"/>
</g>
</svg>
